# Blender v2.79 (sub 0) OBJ File: 'CartelLagos.blend'
# www.blender.org
mtllib CartelLagos.mtl
o Cube_Cube.001
v -1.346924 -0.107337 0.051833
v -1.346924 2.434363 0.051833
v -1.346924 -0.107337 -0.250966
v -1.346924 2.434363 -0.250966
v -1.044125 -0.107337 0.051833
v -1.044125 2.434363 0.051833
v -1.044125 -0.107337 -0.250966
v -1.044125 2.434363 -0.250966
v -1.348908 1.855744 0.049755
v -1.344886 1.850790 -0.252976
v -1.035226 1.777434 -0.178054
v -1.037362 1.780062 -0.017502
v -1.345905 1.567490 -0.251971
v -1.035756 1.636592 -0.178575
v -1.036819 1.637906 -0.018005
v -1.347916 1.569967 0.050794
v -1.042141 1.846790 -0.248889
v -1.043133 1.565490 -0.249927
v -1.046163 1.851745 0.053843
v -1.045144 1.567968 0.052838
v -0.978384 2.126375 -0.180537
v -0.978935 1.277708 -0.181079
v -0.980607 2.142209 -0.013385
v -0.980042 1.285625 -0.013909
v 0.963948 2.126424 -0.173362
v 0.963397 1.277757 -0.173903
v 0.961724 2.142258 -0.006210
v 0.962290 1.285674 -0.006733
v 1.030192 1.856994 -0.233842
v 1.029983 1.584108 -0.234742
v 1.029348 1.861649 0.043868
v 1.029563 1.586436 0.042998
v 1.389650 1.851141 -0.218172
v 1.389441 1.578256 -0.219072
v 1.388806 1.855796 0.059538
v 1.389021 1.580583 0.058668
v 1.039957 2.431069 -0.243434
v 1.039113 2.435724 0.034276
v 1.399415 2.425217 -0.227764
v 1.398571 2.429871 0.049946
v 1.001766 -0.111073 -0.220580
v 1.001345 -0.108746 0.057160
v 1.361224 -0.116926 -0.204910
v 1.360803 -0.114599 0.072830
vt 0.823167 0.364260
vt 0.784787 0.364260
vt 0.784787 0.325881
vt 0.823167 0.325881
vt 0.823167 0.364260
vt 0.784787 0.364260
vt 0.784787 0.325881
vt 0.823167 0.325881
vt 0.823167 0.364260
vt 0.784787 0.364260
vt 0.784787 0.325881
vt 0.823167 0.325881
vt 0.784787 0.364260
vt 0.784787 0.325881
vt 0.823167 0.325881
vt 0.823167 0.364260
vt 0.784787 0.364260
vt 0.823167 0.325881
vt 0.823167 0.364260
vt 0.784787 0.364260
vt 0.784787 0.325881
vt 0.823167 0.325881
vt 0.823167 0.364260
vt 0.784787 0.325881
vt 0.823167 0.325881
vt 0.823167 0.364260
vt 0.784787 0.364260
vt 0.784787 0.325881
vt 0.823167 0.325881
vt 0.823167 0.364260
vt 0.784787 0.364260
vt 0.784787 0.325881
vt 0.823167 0.325881
vt 0.823167 0.364260
vt 0.784787 0.364260
vt 0.784787 0.325881
vt 0.823167 0.325881
vt 0.823167 0.364260
vt 0.784787 0.364260
vt 0.784787 0.325881
vt 0.823167 0.325881
vt 0.823167 0.364260
vt 0.784787 0.364260
vt 0.784787 0.325881
vt 0.823167 0.325881
vt 0.823167 0.364260
vt 0.784787 0.364260
vt 0.784787 0.325881
vt 0.823167 0.325881
vt 0.823167 0.364260
vt 0.784787 0.364260
vt 0.784787 0.325881
vt 0.823167 0.364260
vt 0.784787 0.364260
vt 0.823167 0.364260
vt 0.784787 0.364260
vt 0.784787 0.325881
vt 0.823167 0.325881
vt 0.784787 0.364260
vt 0.823167 0.364260
vt 0.823167 0.364260
vt 0.784787 0.364260
vt 0.784787 0.325881
vt 0.823167 0.325881
vt 0.784787 0.325881
vt 0.823167 0.325881
vt 0.784787 0.325881
vt 0.823167 0.325881
vt 0.784787 0.325881
vt 0.823167 0.325881
vt 0.823167 0.364260
vt 0.784787 0.364260
vt 0.784787 0.325881
vt 0.823167 0.325881
vt 0.740177 0.258850
vt 0.759812 0.662576
vt 0.299596 0.553357
vt 0.282801 0.149630
vt 0.823167 0.364260
vt 0.784787 0.364260
vt 0.784787 0.325881
vt 0.823167 0.325881
vt 0.293126 0.555106
vt 0.286777 0.144268
vt 0.758010 0.261796
vt 0.776875 0.659837
vt 0.823167 0.364260
vt 0.784787 0.364260
vt 0.784787 0.325881
vt 0.823167 0.325881
vt 0.823167 0.364260
vt 0.784787 0.364260
vt 0.784787 0.325881
vt 0.823167 0.325881
vt 0.823167 0.364260
vt 0.784787 0.364260
vt 0.784787 0.325881
vt 0.823167 0.325881
vt 0.823167 0.364260
vt 0.784787 0.364260
vt 0.784787 0.325881
vt 0.823167 0.325881
vt 0.823167 0.364260
vt 0.784787 0.325881
vt 0.823167 0.325881
vt 0.823167 0.364260
vt 0.784787 0.364260
vt 0.784787 0.325881
vt 0.823167 0.325881
vt 0.823167 0.364260
vt 0.784787 0.364260
vt 0.784787 0.325881
vt 0.823167 0.325881
vt 0.827387 0.331223
vt 0.827355 0.334890
vt 0.794181 0.338996
vt 0.796698 0.330928
vt 0.823167 0.364260
vt 0.784787 0.364260
vt 0.784787 0.325881
vt 0.823167 0.325881
vt 0.823167 0.364260
vt 0.784787 0.364260
vt 0.784787 0.325881
vt 0.823167 0.325881
vt 0.823167 0.364260
vt 0.784787 0.325881
vt 0.823167 0.364260
vt 0.784787 0.364260
vt 0.823167 0.325881
vt 0.823167 0.364260
vt 0.784787 0.364260
vt 0.784787 0.325881
vt 0.784787 0.364260
vt 0.784787 0.325881
vt 0.823167 0.325881
vt 0.823167 0.364260
vt 0.784787 0.364260
vt 0.784787 0.325881
vt 0.823167 0.325881
vt 0.784787 0.364260
vt 0.823167 0.325881
vn 0.0000 1.0000 0.0000
vn 0.0000 -1.0000 0.0000
vn -1.0000 0.0000 -0.0033
vn 0.0034 0.0000 -1.0000
vn -0.0068 -0.0000 1.0000
vn 1.0000 -0.0000 0.0066
vn 0.0068 -0.0000 -1.0000
vn -1.0000 -0.0000 -0.0066
vn 1.0000 0.0000 0.0033
vn -0.0101 0.0000 0.9999
vn -0.0721 -0.0011 0.9974
vn 0.0101 0.0000 -0.9999
vn -1.0000 0.0000 -0.0100
vn -0.0034 0.0000 1.0000
vn 0.9950 -0.0032 -0.1000
vn 0.9928 0.0032 0.1195
vn 0.9938 0.1107 0.0114
vn 0.9938 -0.1107 0.0075
vn 0.0003 0.9955 -0.0943
vn -0.9872 0.1578 -0.0220
vn -0.0437 0.0011 -0.9990
vn -0.9875 -0.1577 -0.0021
vn 0.9765 -0.2152 0.0083
vn 0.0037 0.0006 -1.0000
vn -0.0001 -0.9989 0.0473
vn -0.0037 -0.0006 1.0000
vn 0.9999 -0.0170 0.0033
vn -0.5947 -0.0014 0.8040
vn 0.9716 0.2365 -0.0042
vn -0.6746 0.0014 -0.7382
vn 1.0000 0.0000 0.0023
vn 0.0436 0.0033 -0.9990
vn -0.0434 0.0091 0.9990
vn -0.0436 -0.0032 0.9990
vn 0.0170 0.9997 -0.0167
vn -0.9999 0.0170 -0.0033
vn 0.0433 -0.0174 -0.9989
vn -0.0433 0.0174 0.9989
vn -0.0166 -0.9998 0.0084
vn 0.9999 -0.0166 0.0017
vn -0.9999 0.0166 -0.0017
vn 0.0434 -0.0091 -0.9990
usemtl None
s off
f 8/1/1 4/2/1 2/3/1 6/4/1
f 3/5/2 7/6/2 5/7/2 1/8/2
f 1/9/3 16/10/3 13/11/3 3/12/3
f 3/5/4 13/13/4 18/14/4 7/15/4
f 19/16/5 6/17/5 2/3/5 9/18/5
f 17/19/6 8/20/6 6/21/6 19/22/6
f 10/23/7 4/2/7 8/24/7 17/25/7
f 9/26/8 2/27/8 4/28/8 10/29/8
f 7/30/9 18/31/9 20/32/9 5/33/9
f 20/34/10 19/35/10 9/36/10 16/37/10
f 12/38/11 15/39/11 24/40/11 23/41/11
f 13/42/12 10/43/12 17/44/12 18/45/12
f 16/46/13 9/47/13 10/48/13 13/49/13
f 5/50/14 20/51/14 16/52/14 1/8/14
f 11/53/15 14/54/15 18/14/15 17/25/15
f 15/55/16 12/56/16 19/57/16 20/58/16
f 12/38/17 11/59/17 17/44/17 19/22/17
f 14/60/18 15/39/18 20/32/18 18/45/18
f 21/61/19 23/62/19 27/63/19 25/64/19
f 11/53/20 12/56/20 23/65/20 21/66/20
f 14/60/21 11/59/21 21/67/21 22/68/21
f 15/55/22 14/54/22 22/69/22 24/70/22
f 28/71/23 26/72/23 30/73/23 32/74/23
f 22/75/24 21/76/24 25/77/24 26/78/24
f 24/79/25 22/80/25 26/81/25 28/82/25
f 23/83/26 24/84/26 28/85/26 27/86/26
f 35/87/27 33/88/27 39/89/27 40/90/27
f 27/91/28 28/92/28 32/93/28 31/94/28
f 25/95/29 27/96/29 31/97/29 29/98/29
f 26/99/30 25/100/30 29/101/30 30/102/30
f 34/103/31 33/88/31 35/104/31 36/105/31
f 30/106/32 29/107/32 33/108/32 34/109/32
f 36/110/33 32/111/33 42/112/33 44/113/33
f 31/114/34 32/115/34 36/116/34 35/117/34
f 37/118/35 38/119/35 40/120/35 39/121/35
f 29/122/36 31/123/36 38/124/36 37/125/36
f 33/126/37 29/107/37 37/127/37 39/121/37
f 31/128/38 35/129/38 40/120/38 38/130/38
f 42/131/39 41/132/39 43/133/39 44/113/39
f 34/103/40 36/134/40 44/135/40 43/136/40
f 32/137/41 30/138/41 41/139/41 42/140/41
f 30/106/42 34/141/42 43/133/42 41/142/42
