# Blender v2.79 (sub 0) OBJ File: 'tableroNoticiasv2.blend'
# www.blender.org
mtllib tableroNoticiasv2.mtl
o Cube
v 4.822389 1.093774 -1.980986
v 4.822389 1.093774 2.500370
v -4.862342 1.093774 2.500369
v -4.862339 1.093774 -1.980987
v 4.468640 1.790442 -1.627235
v 4.468636 1.790442 2.146621
v -4.508593 1.790442 2.146619
v -4.508591 1.790442 -1.627236
v -0.019975 1.093774 -1.980987
v 4.822390 1.522604 -1.980986
v -4.862340 1.522604 -1.980987
v -0.019975 1.790442 -1.627236
v -2.441157 1.093774 -1.980987
v 4.822391 1.737019 -1.980986
v -4.862340 1.737019 -1.980987
v -2.441158 1.790442 -1.627236
v 2.401207 1.093774 -1.980987
v 4.822389 1.308189 -1.980986
v -4.862339 1.308189 -1.980987
v 2.401208 1.790442 -1.627236
v -0.019975 1.737019 -1.980986
v 2.401208 1.737019 -1.980986
v -2.441158 1.737019 -1.980986
v -2.441157 1.093775 -2.620228
v -4.862339 1.093775 -2.620228
v 2.401207 1.093775 -2.620228
v -0.019975 1.093775 -2.620228
v 4.822389 1.308190 -2.620227
v 4.822390 1.522605 -2.620227
v -4.862339 1.308190 -2.620228
v -4.862340 1.522605 -2.620228
v -2.441158 1.522605 -2.620228
v 2.401207 1.522605 -2.620227
v -0.019975 1.522605 -2.620227
v -0.019975 1.308190 -2.620228
v 4.822391 1.737020 -2.620227
v -4.862340 1.737020 -2.620228
v 4.822389 1.093775 -2.620227
v -0.019975 1.737020 -2.620227
v 2.401207 1.308190 -2.620227
v 2.401208 1.737020 -2.620227
v -2.441158 1.737020 -2.620227
v -2.441157 1.308190 -2.620228
v 4.822391 1.951434 -1.980985
v 4.822386 1.951434 2.500371
v -2.441158 1.951434 -1.980986
v -4.862341 1.951434 -1.980986
v -4.862343 1.951434 2.500369
v 2.401208 1.951434 -1.980986
v -0.019975 1.951434 -1.980986
v 4.604644 1.951434 -1.763239
v 4.604640 1.951434 2.282625
v -2.441158 1.951434 -1.763240
v -4.644595 1.951434 -1.763240
v -4.644597 1.951434 2.282623
v 2.401208 1.951434 -1.763239
v -0.019975 1.951434 -1.763239
vt 0.640829 0.170417
vt 0.609890 0.185317
vt 0.602249 0.218796
vt 0.623659 0.245644
vt 0.657999 0.245644
vt 0.679410 0.218796
vt 0.671769 0.185317
vt 0.949769 0.810688
vt 0.759533 0.804989
vt 0.508047 0.815286
vt 0.259445 0.812677
vt 0.046860 0.819973
vt 0.037182 0.086384
vt 0.953933 0.089739
vt 0.973412 0.075106
vt 0.978238 0.074611
vt 0.982111 0.075250
vt 0.984302 0.075086
vt 0.985813 0.074575
vt 0.977476 0.833930
vt 0.966835 0.826361
vt 0.884854 0.050484
vt 0.885103 0.067166
vt 0.110371 0.062244
vt 0.110371 0.049871
vt 0.025892 0.831776
vt 0.014657 0.834344
vt 0.009778 0.071863
vt 0.016680 0.071528
vt 0.016685 0.071751
vt 0.016682 0.071751
vt 0.017275 0.071572
vt 0.722381 0.003395
vt 0.727769 0.003395
vt 0.727769 0.033143
vt 0.722381 0.033143
vt 0.496008 0.865100
vt 0.745990 0.865100
vt 0.743994 0.970705
vt 0.496008 0.970705
vt 0.700924 0.033330
vt 0.700924 0.023352
vt 0.716985 0.023352
vt 0.716985 0.033330
vt 0.700923 0.013373
vt 0.716985 0.013373
vt 0.884766 0.177988
vt 0.864126 0.177988
vt 0.864126 0.167895
vt 0.884766 0.167895
vt 0.905406 0.177988
vt 0.905406 0.167895
vt 0.246025 0.865100
vt 0.246025 0.968857
vt 0.620277 0.834889
vt 0.620271 0.861893
vt 0.455637 0.861787
vt 0.455642 0.834784
vt 0.784913 0.834994
vt 0.784908 0.861998
vt 0.716994 0.003395
vt 0.716994 0.033143
vt 0.291008 0.834679
vt 0.291003 0.861682
vt 0.126370 0.861576
vt 0.126375 0.834573
vt 0.017999 0.866948
vt 0.017001 0.972554
vt 0.700924 0.003395
vt 0.716985 0.003395
vt 0.926046 0.177988
vt 0.926046 0.167895
vt 0.843486 0.177988
vt 0.843486 0.167895
vt 0.757329 0.925631
vt 0.757329 0.930447
vt 0.727971 0.930447
vt 0.727971 0.925631
vt 0.757329 0.916000
vt 0.757329 0.920816
vt 0.727971 0.920816
vt 0.727971 0.916000
vt 0.816047 0.916000
vt 0.816047 0.920816
vt 0.786688 0.920816
vt 0.786688 0.916000
vt 0.816047 0.925631
vt 0.816047 0.930447
vt 0.786688 0.930447
vt 0.786688 0.925631
vt 0.845406 0.920815
vt 0.845406 0.925631
vt 0.845406 0.930447
vt 0.845406 0.916000
vt 0.733156 0.003395
vt 0.733156 0.033143
vt 0.975958 0.866264
vt 0.975738 0.965669
vt 0.965703 0.819725
vt 0.972689 0.079318
vt 0.986166 0.050367
vt 0.978879 0.860765
vt 0.022874 0.846133
vt 0.264654 0.848231
vt 0.264654 0.865842
vt 0.014665 0.865842
vt 0.972454 0.075446
vt 0.016853 0.067287
vt 0.007573 0.038455
vt 0.984565 0.040720
vt 0.018779 0.071907
vt 0.025944 0.832453
vt 0.016071 0.864131
vt 0.007588 0.036938
vt 0.514640 0.848231
vt 0.764623 0.848231
vt 0.764623 0.865841
vt 0.514640 0.865842
vt 0.971168 0.842685
vt 0.973690 0.860295
vt 0.948143 0.805399
vt 0.959938 0.090900
vt 0.973576 0.074599
vt 0.961780 0.821699
vt 0.042477 0.821310
vt 0.265446 0.819110
vt 0.953382 0.094790
vt 0.036553 0.081971
vt 0.040318 0.140131
vt 0.040318 0.762319
vt 0.021558 0.784741
vt 0.021558 0.117708
vt 0.515638 0.816247
vt 0.764124 0.810702
vt 0.948300 0.808808
vn 0.0000 -1.0000 -0.0000
vn 0.0000 1.0000 0.0000
vn 1.0000 -0.0000 0.0000
vn -0.0000 -0.0000 1.0000
vn -1.0000 -0.0000 -0.0000
vn 0.0000 0.0000 -1.0000
vn -0.7639 0.6453 -0.0000
vn -0.0000 0.6453 0.7639
vn 0.0000 0.6453 -0.7639
vn 0.7639 0.6453 0.0000
usemtl Material
s off
f 1/1/1 2/2/1 3/3/1 4/4/1 13/5/1 9/6/1 17/7/1
f 5/8/2 20/9/2 12/10/2 16/11/2 8/12/2 7/13/2 6/14/2
f 1/15/3 18/16/3 10/17/3 14/18/3 44/19/3 45/20/3 2/21/3
f 2/22/4 45/23/4 48/24/4 3/25/4
f 3/26/5 48/27/5 47/28/5 15/29/5 11/30/5 19/31/5 4/32/5
f 19/33/5 11/34/5 31/35/5 30/36/5
f 21/37/2 22/38/2 41/39/2 39/40/2
f 14/41/3 10/42/3 29/43/3 36/44/3
f 10/42/3 18/45/3 28/46/3 29/43/3
f 9/47/1 13/48/1 24/49/1 27/50/1
f 17/51/1 9/47/1 27/50/1 26/52/1
f 23/53/2 21/37/2 39/40/2 42/54/2
f 49/55/6 22/56/6 21/57/6 50/58/6
f 44/59/6 14/60/6 22/56/6 49/55/6
f 4/61/5 19/33/5 30/36/5 25/62/5
f 46/63/6 23/64/6 15/65/6 47/66/6
f 50/58/6 21/57/6 23/64/6 46/63/6
f 15/67/2 23/53/2 42/54/2 37/68/2
f 18/45/3 1/69/3 38/70/3 28/46/3
f 1/71/1 17/51/1 26/52/1 38/72/1
f 13/48/1 4/73/1 25/74/1 24/49/1
f 43/75/6 24/76/6 25/77/6 30/78/6
f 42/79/6 32/80/6 31/81/6 37/82/6
f 41/83/6 33/84/6 34/85/6 39/86/6
f 40/87/6 26/88/6 27/89/6 35/90/6
f 33/84/6 40/87/6 35/90/6 34/85/6
f 29/91/6 28/92/6 40/87/6 33/84/6
f 28/92/6 38/93/6 26/88/6 40/87/6
f 36/94/6 29/91/6 33/84/6 41/83/6
f 39/86/6 34/85/6 32/80/6 42/79/6
f 32/80/6 43/75/6 30/78/6 31/81/6
f 34/85/6 35/90/6 43/75/6 32/80/6
f 35/90/6 27/89/6 24/76/6 43/75/6
f 11/34/5 15/95/5 37/96/5 31/35/5
f 22/38/2 14/97/2 36/98/2 41/39/2
f 51/99/2 52/100/2 45/101/2 44/102/2
f 54/103/2 53/104/2 46/105/2 47/106/2
f 52/107/2 55/108/2 48/109/2 45/110/2
f 55/111/2 54/112/2 47/113/2 48/114/2
f 57/115/2 56/116/2 49/117/2 50/118/2
f 53/104/2 57/115/2 50/118/2 46/105/2
f 56/116/2 51/119/2 44/120/2 49/117/2
f 5/121/7 6/122/7 52/123/7 51/124/7
f 8/125/8 16/126/8 53/104/8 54/103/8
f 6/127/9 7/128/9 55/108/9 52/107/9
f 7/129/10 8/130/10 54/131/10 55/132/10
f 12/133/8 20/134/8 56/116/8 57/115/8
f 16/126/8 12/133/8 57/115/8 53/104/8
f 20/134/8 5/135/8 51/119/8 56/116/8
